ffmpeg started on 2025-06-28 at 18:11:40
Report written to "D:\Convert\FFMetrics\reports\ssim_report-6.txt"
Log level: 32
Command line:
ffmpeg -hide_banner -nostdin -i "G:\\\xc0\xed\xe8\xec\xe5\\\xce\xed\xe3\xee\xe8\xed\xe3\xe8\\!_37_\xc7\xe8\xec\xe0_2025\\JamClub\\100 \xe4\xe5\xe2\xf3\xf8\xe5\xea, \xea\xee\xf2\xee\xf0\xfb\xe5 \xee\xf7\xe5\xed\xfc-\xee\xf7\xe5\xed\xfc-\xee\xf7\xe5\xed\xfc-\xee\xf7\xe5\xed\xfc-\xee\xf7\xe5\xed\xfc \xf1\xe8\xeb\xfc\xed\xee \xf2\xe5\xe1\xff \xeb\xfe\xe1\xff\xf2\\\xd2\xc2-2\\JamClub_The_100_Girlfriends_Who_Really_Really_Really_Really_REALLY_2_09_HEVC.mkv" -i "G:\\\xc0\xed\xe8\xec\xe5\\\xce\xed\xe3\xee\xe8\xed\xe3\xe8\\!_37_\xc7\xe8\xec\xe0_2025\\JamClub\\100 \xe4\xe5\xe2\xf3\xf8\xe5\xea, \xea\xee\xf2\xee\xf0\xfb\xe5 \xee\xf7\xe5\xed\xfc-\xee\xf7\xe5\xed\xfc-\xee\xf7\xe5\xed\xfc-\xee\xf7\xe5\xed\xfc-\xee\xf7\xe5\xed\xfc \xf1\xe8\xeb\xfc\xed\xee \xf2\xe5\xe1\xff \xeb\xfe\xe1\xff\xf2\\\xd2\xc2-2\\JamClub_The_100_Girlfriends_Who_Really_Really_Really_Really_REALLY_2_09.mp4" -lavfi "[0:v]settb=AVTB,setpts=PTS-STARTPTS,format=pix_fmts=yuv420p10,fps=24000/1001,scale=1920:1080:flags=bicubic[main];[1:v]settb=AVTB,setpts=PTS-STARTPTS,format=pix_fmts=yuv420p,fps=24000/1001,scale=1920:1080:flags=bicubic[ref];[main][ref]ssim=eof_action=endall:stats_file='D\\:/Convert/FFMetrics/logs/ssim_logfile-6.txt'" -f null -
Input #0, matroska,webm, from 'G:\Аниме\Онгоинги\!_37_Зима_2025\JamClub\100 девушек, которые очень-очень-очень-очень-очень сильно тебя любят\ТВ-2\JamClub_The_100_Girlfriends_Who_Really_Really_Really_Really_REALLY_2_09_HEVC.mkv':
  Metadata:
    COMPATIBLE_BRANDS: isomiso2avc1mp41
    MAJOR_BRAND     : isom
    MINOR_VERSION   : 512
    ENCODER         : Lavf61.7.100
  Duration: 00:24:12.27, start: -0.001000, bitrate: 1687 kb/s
  Stream #0:0: Video: hevc (Main 10), yuv420p10le(tv, bt709, progressive), 1920x1080 [SAR 1:1 DAR 16:9], 23.98 fps, 23.98 tbr, 1k tbn (default)
      Metadata:
        HANDLER_NAME    : VideoHandler
        VENDOR_ID       : [0][0][0][0]
        ENCODER         : Lavc61.19.100 libx265
        BPS             : 1490248
        DURATION        : 00:24:12.200708333
        NUMBER_OF_FRAMES: 34818
        NUMBER_OF_BYTES : 270517421
        _STATISTICS_WRITING_APP: mkvpropedit v66.0.0 ('Josie') 64-bit
        _STATISTICS_WRITING_DATE_UTC: 2025-06-28 14:07:35
        _STATISTICS_TAGS: BPS DURATION NUMBER_OF_FRAMES NUMBER_OF_BYTES
  Stream #0:1(eng): Audio: aac (LC), 48000 Hz, stereo, fltp (default)
      Metadata:
        HANDLER_NAME    : SoundHandler
        VENDOR_ID       : [0][0][0][0]
        ENCODER         : Lavc61.19.100 aac
        BPS             : 192771
        DURATION        : 00:24:12.227000000
        NUMBER_OF_FRAMES: 68074
        NUMBER_OF_BYTES : 34993515
        _STATISTICS_WRITING_APP: mkvpropedit v66.0.0 ('Josie') 64-bit
        _STATISTICS_WRITING_DATE_UTC: 2025-06-28 14:07:35
        _STATISTICS_TAGS: BPS DURATION NUMBER_OF_FRAMES NUMBER_OF_BYTES
Input #1, mov,mp4,m4a,3gp,3g2,mj2, from 'G:\Аниме\Онгоинги\!_37_Зима_2025\JamClub\100 девушек, которые очень-очень-очень-очень-очень сильно тебя любят\ТВ-2\JamClub_The_100_Girlfriends_Who_Really_Really_Really_Really_REALLY_2_09.mp4':
  Metadata:
    major_brand     : isom
    minor_version   : 512
    compatible_brands: isomiso2avc1mp41
    encoder         : Lavf60.16.100
  Duration: 00:24:12.25, start: 0.000000, bitrate: 4424 kb/s
  Stream #1:0[0x1](und): Video: h264 (High) (avc1 / 0x31637661), yuv420p(progressive), 1920x1080 [SAR 1:1 DAR 16:9], 4226 kb/s, 23.98 fps, 23.98 tbr, 90k tbn (default)
      Metadata:
        handler_name    : VideoHandler
        vendor_id       : [0][0][0][0]
  Stream #1:1[0x2](eng): Audio: aac (LC) (mp4a / 0x6134706D), 48000 Hz, stereo, fltp, 191 kb/s (default)
      Metadata:
        handler_name    : SoundHandler
        vendor_id       : [0][0][0][0]
Stream mapping:
  Stream #0:0 (hevc) -> settb:default
  Stream #1:0 (h264) -> settb:default
  ssim:default -> Stream #0:0 (wrapped_avframe)
  Stream #0:1 -> #0:1 (aac (native) -> pcm_s16le (native))
Output #0, null, to 'pipe:':
  Metadata:
    COMPATIBLE_BRANDS: isomiso2avc1mp41
    MAJOR_BRAND     : isom
    MINOR_VERSION   : 512
    encoder         : Lavf61.7.100
  Stream #0:0: Video: wrapped_avframe, yuv420p10le(tv, bt709, progressive), 1920x1080 [SAR 1:1 DAR 16:9], q=2-31, 200 kb/s, 23.98 fps, 23.98 tbn
      Metadata:
        encoder         : Lavc61.19.100 wrapped_avframe
  Stream #0:1(eng): Audio: pcm_s16le, 48000 Hz, stereo, s16, 1536 kb/s (default)
      Metadata:
        HANDLER_NAME    : SoundHandler
        VENDOR_ID       : [0][0][0][0]
        _STATISTICS_TAGS: BPS DURATION NUMBER_OF_FRAMES NUMBER_OF_BYTES
        BPS             : 192771
        DURATION        : 00:24:12.227000000
        NUMBER_OF_FRAMES: 68074
        NUMBER_OF_BYTES : 34993515
        _STATISTICS_WRITING_APP: mkvpropedit v66.0.0 ('Josie') 64-bit
        _STATISTICS_WRITING_DATE_UTC: 2025-06-28 14:07:35
        encoder         : Lavc61.19.100 pcm_s16le
frame=  111 fps=0.0 q=-0.0 size=N/A time=00:00:04.62 bitrate=N/A speed= 9.1x    frame=  275 fps=266 q=-0.0 size=N/A time=00:00:11.46 bitrate=N/A speed=11.1x    frame=  468 fps=303 q=-0.0 size=N/A time=00:00:19.51 bitrate=N/A speed=12.6x    frame=  638 fps=311 q=-0.0 size=N/A time=00:00:26.60 bitrate=N/A speed=  13x    frame=  876 fps=339 q=-0.0 size=N/A time=00:00:36.53 bitrate=N/A speed=14.2x    frame= 1140 fps=369 q=-0.0 size=N/A time=00:00:47.54 bitrate=N/A speed=15.4x    frame= 1411 fps=392 q=-0.0 size=N/A time=00:00:58.85 bitrate=N/A speed=16.3x    frame= 1650 fps=400 q=-0.0 size=N/A time=00:01:08.81 bitrate=N/A speed=16.7x    frame= 1852 fps=400 q=-0.0 size=N/A time=00:01:17.24 bitrate=N/A speed=16.7x    frame= 2096 fps=406 q=-0.0 size=N/A time=00:01:27.42 bitrate=N/A speed=16.9x    frame= 2311 fps=408 q=-0.0 size=N/A time=00:01:36.38 bitrate=N/A speed=  17x    frame= 2527 fps=409 q=-0.0 size=N/A time=00:01:45.39 bitrate=N/A speed=17.1x    frame= 2752 fps=411 q=-0.0 size=N/A time=00:01:54.78 bitrate=N/A speed=17.2x    frame= 2958 fps=410 q=-0.0 size=N/A time=00:02:03.37 bitrate=N/A speed=17.1x    frame= 3190 fps=413 q=-0.0 size=N/A time=00:02:13.04 bitrate=N/A speed=17.2x    frame= 3377 fps=409 q=-0.0 size=N/A time=00:02:20.84 bitrate=N/A speed=17.1x    frame= 3542 fps=404 q=-0.0 size=N/A time=00:02:27.73 bitrate=N/A speed=16.9x    frame= 3719 fps=401 q=-0.0 size=N/A time=00:02:35.11 bitrate=N/A speed=16.7x    frame= 3879 fps=396 q=-0.0 size=N/A time=00:02:41.78 bitrate=N/A speed=16.5x    frame= 4089 fps=397 q=-0.0 size=N/A time=00:02:50.54 bitrate=N/A speed=16.5x    frame= 4358 fps=403 q=-0.0 size=N/A time=00:03:01.76 bitrate=N/A speed=16.8x    frame= 4608 fps=406 q=-0.0 size=N/A time=00:03:12.19 bitrate=N/A speed=16.9x    frame= 4863 fps=410 q=-0.0 size=N/A time=00:03:22.82 bitrate=N/A speed=17.1x    frame= 5111 fps=413 q=-0.0 size=N/A time=00:03:33.17 bitrate=N/A speed=17.2x    frame= 5364 fps=416 q=-0.0 size=N/A time=00:03:43.72 bitrate=N/A speed=17.4x    frame= 5559 fps=415 q=-0.0 size=N/A time=00:03:51.85 bitrate=N/A speed=17.3x    frame= 5771 fps=415 q=-0.0 size=N/A time=00:04:00.69 bitrate=N/A speed=17.3x    frame= 6014 fps=417 q=-0.0 size=N/A time=00:04:10.83 bitrate=N/A speed=17.4x    frame= 6241 fps=418 q=-0.0 size=N/A time=00:04:20.30 bitrate=N/A speed=17.4x    frame= 6439 fps=416 q=-0.0 size=N/A time=00:04:28.55 bitrate=N/A speed=17.4x    frame= 6639 fps=415 q=-0.0 size=N/A time=00:04:36.90 bitrate=N/A speed=17.3x    frame= 6852 fps=416 q=-0.0 size=N/A time=00:04:45.78 bitrate=N/A speed=17.3x    frame= 7064 fps=415 q=-0.0 size=N/A time=00:04:54.62 bitrate=N/A speed=17.3x    frame= 7229 fps=412 q=-0.0 size=N/A time=00:05:01.50 bitrate=N/A speed=17.2x    frame= 7448 fps=413 q=-0.0 size=N/A time=00:05:10.64 bitrate=N/A speed=17.2x    frame= 7687 fps=414 q=-0.0 size=N/A time=00:05:20.61 bitrate=N/A speed=17.3x    frame= 7946 fps=416 q=-0.0 size=N/A time=00:05:31.41 bitrate=N/A speed=17.4x    frame= 8174 fps=417 q=-0.0 size=N/A time=00:05:40.92 bitrate=N/A speed=17.4x    frame= 8425 fps=419 q=-0.0 size=N/A time=00:05:51.39 bitrate=N/A speed=17.5x    frame= 8642 fps=419 q=-0.0 size=N/A time=00:06:00.44 bitrate=N/A speed=17.5x    frame= 8841 fps=418 q=-0.0 size=N/A time=00:06:08.74 bitrate=N/A speed=17.4x    frame= 9008 fps=416 q=-0.0 size=N/A time=00:06:15.70 bitrate=N/A speed=17.3x    frame= 9188 fps=414 q=-0.0 size=N/A time=00:06:23.21 bitrate=N/A speed=17.3x    frame= 9327 fps=411 q=-0.0 size=N/A time=00:06:29.01 bitrate=N/A speed=17.1x    frame= 9521 fps=410 q=-0.0 size=N/A time=00:06:37.10 bitrate=N/A speed=17.1x    frame= 9727 fps=410 q=-0.0 size=N/A time=00:06:45.69 bitrate=N/A speed=17.1x    frame= 9885 fps=408 q=-0.0 size=N/A time=00:06:52.28 bitrate=N/A speed=  17x    frame=10091 fps=408 q=-0.0 size=N/A time=00:07:00.87 bitrate=N/A speed=  17x    frame=10301 fps=408 q=-0.0 size=N/A time=00:07:09.63 bitrate=N/A speed=  17x    frame=10565 fps=410 q=-0.0 size=N/A time=00:07:20.64 bitrate=N/A speed=17.1x    frame=10788 fps=410 q=-0.0 size=N/A time=00:07:29.94 bitrate=N/A speed=17.1x    frame=10985 fps=410 q=-0.0 size=N/A time=00:07:38.16 bitrate=N/A speed=17.1x    frame=11187 fps=409 q=-0.0 size=N/A time=00:07:46.59 bitrate=N/A speed=17.1x    frame=11442 fps=411 q=-0.0 size=N/A time=00:07:57.22 bitrate=N/A speed=17.1x    frame=11708 fps=413 q=-0.0 size=N/A time=00:08:08.32 bitrate=N/A speed=17.2x    frame=11940 fps=414 q=-0.0 size=N/A time=00:08:17.99 bitrate=N/A speed=17.2x    frame=12170 fps=414 q=-0.0 size=N/A time=00:08:27.59 bitrate=N/A speed=17.3x    frame=12404 fps=415 q=-0.0 size=N/A time=00:08:37.35 bitrate=N/A speed=17.3x    frame=12615 fps=415 q=-0.0 size=N/A time=00:08:46.15 bitrate=N/A speed=17.3x    frame=12805 fps=414 q=-0.0 size=N/A time=00:08:54.07 bitrate=N/A speed=17.3x    frame=13032 fps=414 q=-0.0 size=N/A time=00:09:03.54 bitrate=N/A speed=17.3x    frame=13212 fps=413 q=-0.0 size=N/A time=00:09:11.05 bitrate=N/A speed=17.2x    frame=13430 fps=414 q=-0.0 size=N/A time=00:09:20.14 bitrate=N/A speed=17.2x    frame=13627 fps=413 q=-0.0 size=N/A time=00:09:28.35 bitrate=N/A speed=17.2x    frame=13810 fps=412 q=-0.0 size=N/A time=00:09:35.99 bitrate=N/A speed=17.2x    frame=14019 fps=412 q=-0.0 size=N/A time=00:09:44.70 bitrate=N/A speed=17.2x    frame=14216 fps=411 q=-0.0 size=N/A time=00:09:52.92 bitrate=N/A speed=17.2x    frame=14390 fps=410 q=-0.0 size=N/A time=00:10:00.18 bitrate=N/A speed=17.1x    frame=14613 fps=411 q=-0.0 size=N/A time=00:10:09.48 bitrate=N/A speed=17.1x    frame=14825 fps=411 q=-0.0 size=N/A time=00:10:18.32 bitrate=N/A speed=17.1x    frame=15041 fps=411 q=-0.0 size=N/A time=00:10:27.33 bitrate=N/A speed=17.1x    frame=15246 fps=411 q=-0.0 size=N/A time=00:10:35.88 bitrate=N/A speed=17.1x    frame=15487 fps=411 q=-0.0 size=N/A time=00:10:45.93 bitrate=N/A speed=17.2x    frame=15714 fps=412 q=-0.0 size=N/A time=00:10:55.40 bitrate=N/A speed=17.2x    frame=15955 fps=413 q=-0.0 size=N/A time=00:11:05.45 bitrate=N/A speed=17.2x    frame=16212 fps=414 q=-0.0 size=N/A time=00:11:16.17 bitrate=N/A speed=17.3x    frame=16419 fps=414 q=-0.0 size=N/A time=00:11:24.80 bitrate=N/A speed=17.2x    frame=16651 fps=414 q=-0.0 size=N/A time=00:11:34.48 bitrate=N/A speed=17.3x    frame=16896 fps=415 q=-0.0 size=N/A time=00:11:44.70 bitrate=N/A speed=17.3x    frame=17143 fps=416 q=-0.0 size=N/A time=00:11:55.00 bitrate=N/A speed=17.3x    frame=17368 fps=416 q=-0.0 size=N/A time=00:12:04.39 bitrate=N/A speed=17.3x    frame=17604 fps=416 q=-0.0 size=N/A time=00:12:14.23 bitrate=N/A speed=17.4x    frame=17848 fps=417 q=-0.0 size=N/A time=00:12:24.41 bitrate=N/A speed=17.4x    frame=18064 fps=417 q=-0.0 size=N/A time=00:12:33.41 bitrate=N/A speed=17.4x    frame=18318 fps=418 q=-0.0 size=N/A time=00:12:44.01 bitrate=N/A speed=17.4x    frame=18536 fps=418 q=-0.0 size=N/A time=00:12:53.10 bitrate=N/A speed=17.4x    frame=18771 fps=419 q=-0.0 size=N/A time=00:13:02.90 bitrate=N/A speed=17.5x    frame=18970 fps=418 q=-0.0 size=N/A time=00:13:11.20 bitrate=N/A speed=17.4x    frame=19169 fps=418 q=-0.0 size=N/A time=00:13:19.50 bitrate=N/A speed=17.4x    frame=19402 fps=418 q=-0.0 size=N/A time=00:13:29.22 bitrate=N/A speed=17.4x    frame=19639 fps=418 q=-0.0 size=N/A time=00:13:39.10 bitrate=N/A speed=17.5x    frame=19840 fps=418 q=-0.0 size=N/A time=00:13:47.49 bitrate=N/A speed=17.4x    frame=20091 fps=419 q=-0.0 size=N/A time=00:13:57.96 bitrate=N/A speed=17.5x    frame=20321 fps=419 q=-0.0 size=N/A time=00:14:07.55 bitrate=N/A speed=17.5x    frame=20560 fps=420 q=-0.0 size=N/A time=00:14:17.52 bitrate=N/A speed=17.5x    frame=20769 fps=419 q=-0.0 size=N/A time=00:14:26.24 bitrate=N/A speed=17.5x    frame=21004 fps=420 q=-0.0 size=N/A time=00:14:36.04 bitrate=N/A speed=17.5x    frame=21269 fps=421 q=-0.0 size=N/A time=00:14:47.09 bitrate=N/A speed=17.5x    frame=21527 fps=422 q=-0.0 size=N/A time=00:14:57.85 bitrate=N/A speed=17.6x    frame=21765 fps=422 q=-0.0 size=N/A time=00:15:07.78 bitrate=N/A speed=17.6x    frame=22015 fps=422 q=-0.0 size=N/A time=00:15:18.20 bitrate=N/A speed=17.6x    frame=22261 fps=423 q=-0.0 size=N/A time=00:15:28.46 bitrate=N/A speed=17.6x    frame=22506 fps=424 q=-0.0 size=N/A time=00:15:38.68 bitrate=N/A speed=17.7x    frame=22734 fps=424 q=-0.0 size=N/A time=00:15:48.19 bitrate=N/A speed=17.7x    frame=22907 fps=423 q=-0.0 size=N/A time=00:15:55.41 bitrate=N/A speed=17.6x    frame=23119 fps=423 q=-0.0 size=N/A time=00:16:04.25 bitrate=N/A speed=17.6x    frame=23318 fps=422 q=-0.0 size=N/A time=00:16:12.55 bitrate=N/A speed=17.6x    frame=23530 fps=422 q=-0.0 size=N/A time=00:16:21.39 bitrate=N/A speed=17.6x    frame=23729 fps=422 q=-0.0 size=N/A time=00:16:29.69 bitrate=N/A speed=17.6x    frame=23994 fps=423 q=-0.0 size=N/A time=00:16:40.74 bitrate=N/A speed=17.6x    frame=24251 fps=424 q=-0.0 size=N/A time=00:16:51.46 bitrate=N/A speed=17.7x    frame=24496 fps=424 q=-0.0 size=N/A time=00:17:01.68 bitrate=N/A speed=17.7x    frame=24742 fps=424 q=-0.0 size=N/A time=00:17:11.94 bitrate=N/A speed=17.7x    frame=25016 fps=425 q=-0.0 size=N/A time=00:17:23.37 bitrate=N/A speed=17.7x    frame=25268 fps=426 q=-0.0 size=N/A time=00:17:33.88 bitrate=N/A speed=17.8x    frame=25549 fps=427 q=-0.0 size=N/A time=00:17:45.60 bitrate=N/A speed=17.8x    frame=25809 fps=428 q=-0.0 size=N/A time=00:17:56.45 bitrate=N/A speed=17.8x    frame=26066 fps=428 q=-0.0 size=N/A time=00:18:07.16 bitrate=N/A speed=17.9x    frame=26322 fps=429 q=-0.0 size=N/A time=00:18:17.84 bitrate=N/A speed=17.9x    frame=26598 fps=430 q=-0.0 size=N/A time=00:18:29.35 bitrate=N/A speed=17.9x    frame=26877 fps=431 q=-0.0 size=N/A time=00:18:40.99 bitrate=N/A speed=  18x    frame=27148 fps=431 q=-0.0 size=N/A time=00:18:52.33 bitrate=N/A speed=  18x    frame=27408 fps=432 q=-0.0 size=N/A time=00:19:03.14 bitrate=N/A speed=  18x    frame=27615 fps=432 q=-0.0 size=N/A time=00:19:11.77 bitrate=N/A speed=  18x    frame=27850 fps=432 q=-0.0 size=N/A time=00:19:21.57 bitrate=N/A speed=  18x    frame=28083 fps=432 q=-0.0 size=N/A time=00:19:31.29 bitrate=N/A speed=  18x    frame=28316 fps=432 q=-0.0 size=N/A time=00:19:41.01 bitrate=N/A speed=  18x    frame=28580 fps=433 q=-0.0 size=N/A time=00:19:52.02 bitrate=N/A speed=18.1x    frame=28849 fps=434 q=-0.0 size=N/A time=00:20:03.24 bitrate=N/A speed=18.1x    frame=29113 fps=434 q=-0.0 size=N/A time=00:20:14.25 bitrate=N/A speed=18.1x    frame=29386 fps=435 q=-0.0 size=N/A time=00:20:25.64 bitrate=N/A speed=18.1x    frame=29652 fps=435 q=-0.0 size=N/A time=00:20:36.73 bitrate=N/A speed=18.2x    frame=29907 fps=436 q=-0.0 size=N/A time=00:20:47.37 bitrate=N/A speed=18.2x    frame=30168 fps=436 q=-0.0 size=N/A time=00:20:58.25 bitrate=N/A speed=18.2x    frame=30436 fps=437 q=-0.0 size=N/A time=00:21:09.43 bitrate=N/A speed=18.2x    frame=30694 fps=438 q=-0.0 size=N/A time=00:21:20.19 bitrate=N/A speed=18.2x    frame=30980 fps=438 q=-0.0 size=N/A time=00:21:32.12 bitrate=N/A speed=18.3x    frame=31232 fps=439 q=-0.0 size=N/A time=00:21:42.63 bitrate=N/A speed=18.3x    frame=31499 fps=439 q=-0.0 size=N/A time=00:21:53.77 bitrate=N/A speed=18.3x    frame=31787 fps=440 q=-0.0 size=N/A time=00:22:05.78 bitrate=N/A speed=18.4x    frame=32020 fps=440 q=-0.0 size=N/A time=00:22:15.50 bitrate=N/A speed=18.4x    frame=32273 fps=441 q=-0.0 size=N/A time=00:22:26.05 bitrate=N/A speed=18.4x    frame=32520 fps=441 q=-0.0 size=N/A time=00:22:36.35 bitrate=N/A speed=18.4x    frame=32682 fps=440 q=-0.0 size=N/A time=00:22:43.11 bitrate=N/A speed=18.4x    frame=32857 fps=439 q=-0.0 size=N/A time=00:22:50.41 bitrate=N/A speed=18.3x    frame=33063 fps=439 q=-0.0 size=N/A time=00:22:59.00 bitrate=N/A speed=18.3x    frame=33289 fps=439 q=-0.0 size=N/A time=00:23:08.42 bitrate=N/A speed=18.3x    frame=33500 fps=439 q=-0.0 size=N/A time=00:23:17.22 bitrate=N/A speed=18.3x    frame=33702 fps=438 q=-0.0 size=N/A time=00:23:25.65 bitrate=N/A speed=18.3x    frame=33887 fps=438 q=-0.0 size=N/A time=00:23:33.37 bitrate=N/A speed=18.3x    frame=34052 fps=437 q=-0.0 size=N/A time=00:23:40.25 bitrate=N/A speed=18.2x    frame=34165 fps=436 q=-0.0 size=N/A time=00:23:44.96 bitrate=N/A speed=18.2x    frame=34271 fps=434 q=-0.0 size=N/A time=00:23:49.38 bitrate=N/A speed=18.1x    frame=34389 fps=433 q=-0.0 size=N/A time=00:23:54.30 bitrate=N/A speed=18.1x    frame=34510 fps=432 q=-0.0 size=N/A time=00:23:59.35 bitrate=N/A speed=  18x    frame=34699 fps=431 q=-0.0 size=N/A time=00:24:07.23 bitrate=N/A speed=  18x    [Parsed_ssim_10 @ 000001beb16a1f00] SSIM Y:0.995311 (23.289178) U:0.994856 (22.886799) V:0.994059 (22.261084) All:0.995026 (23.033270)
[out#0/null @ 000001beab373e00] video:14961KiB audio:272296KiB subtitle:0KiB other streams:0KiB global headers:0KiB muxing overhead: unknown
frame=34818 fps=431 q=-0.0 Lsize=N/A time=00:24:12.20 bitrate=N/A speed=  18x    
